# xmcd
#
# Track frame offsets:
#	150
#	19800
#	42900
#	58950
#	75450
#	92475
#	106275
#	119775
#	135450
#	151425
#	166275
#	185925
#	209025
#	225075
#	241575
#	258600
#	272400
#	285900
#	301575
#	317550
#
# Disc length: 4432 seconds
#
# Revision: 1
# Processed by: cddbd v1.5.1PL0 Copyright (c) Steve Scherf et al.
# Submitted via: audiograbber 1.82.02
#
DISCID=09114e14
DTITLE=Various Artist - Country Hits Monthly 9707 Country
DYEAR=1900
DGENRE=Karaoke
TTITLE0=Trisha Yearwood W - Vocals - How do I live without you W - Vocals
TTITLE1=Bob Carlisle W - Vocals - Butterfly Kisses ( Country mix ) W - Vocals
TTITLE2=Mark Wills W - Vocals - Places I've never been W - Vocals
TTITLE3=George Strait W - Vocals - Carrying your love with me W - Vocals
TTITLE4=Clint Black and Martina McBride W - Vocals - Still holding on W - Vocals
TTITLE5=Trace Adkins W - Vocals - I left something turned on at home W - Vocals
TTITLE6=Billy Yates W - Vocals - Flowers W - Vocals
TTITLE7=Tracy Lawrence W - Vocals - How a cowgirl says goodbye W - Vocals
TTITLE8=Lonestar W - Vocals - Come cryin' to me W - Vocals
TTITLE9=Tracy Byrd W - Vocals - Don't love make a diamond shine W - Vocals
TTITLE10=Trisha Yearwood - How do I live without you
TTITLE11=Bob Carlisle - Butterfly Kisses ( Country mix )
TTITLE12=Mark Wills - Places I've never been
TTITLE13=George Strait - Carrying your love with me
TTITLE14=Clint Black and Martina McBride - Still holding on
TTITLE15=Trace Adkins - I left something turned on at home
TTITLE16=Billy Yates - Flowers
TTITLE17=Tracy Lawrence - How a cowgirl says goodbye
TTITLE18=Lonestar - Come cryin' to me
TTITLE19=Tracy Byrd - Don't love make a diamond shine
EXTD=
EXTT0=
EXTT1=
EXTT2=
EXTT3=
EXTT4=
EXTT5=
EXTT6=
EXTT7=
EXTT8=
EXTT9=
EXTT10=
EXTT11=
EXTT12=
EXTT13=
EXTT14=
EXTT15=
EXTT16=
EXTT17=
EXTT18=
EXTT19=
PLAYORDER=
